<?xml version="1.0" encoding="UTF-8"?>
<svg xmlns="http://www.w3.org/2000/svg" version="1.1" viewBox="0 0 595.28 841.89">
  <defs>
    <style>
      .cls-1 {
        fill: #d1d3d4;
      }
    </style>
  </defs>
  <!-- Generator: Adobe Illustrator 28.7.1, SVG Export Plug-In . SVG Version: 1.2.0 Build 142)  -->
  <g>
    <g id="Layer_1">
      <g>
        <path class="cls-1" d="M307.26,244.88c-.91,1.11-2.16,1.08-3.42,1.01-.41-.02-.82,0-1.23,0-2.72,0-2.48-.19-2.48,2.44,0,.45-.04.93-.1,1.42h-19.99v-10.75c.27.34.7.45,1.31.41,1.14-.09,2.3-.07,3.45,0,1.05.06,1.43-.28,1.42-1.38-.03-2.07-.47-4.25,1.06-6.05v-.22c-.05-.06-.12-.11-.14-.17-.23-.75-.72-1.29-1.52-1.16-.49.07-1.23.4-1.32.75-.15.58.11,1.28.23,1.92.04.2.28.38.28.56.02,1.43.01,2.86.01,4.38h-4.78v-31.57h-6.26v4.31c-.38,0-.76,0-1.13-.02-.38-.02-.84-.04-1.13-.25-1.44-1.03-2.23-.86-3.01.73v.22c.64,1.47,1.62,2,2.55,1.22.62-.52,1.22-.58,1.92-.56.26,0,.53,0,.8,0v35.81s0,0,0,0c0-1.79,0-1.78-1.81-1.79-1.04,0-2.07.15-3.02-.64-.66-.55-1.43-.15-1.91.52-.49.7-.41,1.42.22,2,.66.6,1.48.67,2.09.03.83-.87,1.81-.46,2.71-.39.16.01.23,1.08.35,1.65.01.05.67.84,1.37,1.67v2.84c-.12.26-.14.68-.16,1.35-.02.7-.04,1.5-.37,2.07-.57.97-.69,1.73.05,2.36.69.59,1.22.1,2.11-.02,1.2-.17,1.3-.45,0-2.39-.38-.57-.33-1.44-.29-2.18h24.24c.4.64,1.67-.56,2.19-2.64.18-.71-.03-2.5-.03-5.1.87,0,1.61-.02,2.34,0,1.08.04,2.18-.24,3.17.61.28.24,1.14.11,1.52-.16.38-.27.73-.97.65-1.39-.11-.53-.67-.97-1.04-1.45h-.89Z"/>
        <path class="cls-1" d="M376.25,220.95c-7.79,0-13.54,6.06-13.54,15.32s5.41,14.8,13.11,14.8,13.54-5.32,13.54-15.36c0-8.65-5.15-14.76-13.11-14.76ZM376.03,248c-5.93,0-9.3-5.58-9.3-11.81s3.12-12.16,9.35-12.16,9.3,6.06,9.3,11.86c0,6.62-3.38,12.12-9.35,12.12Z"/>
        <path class="cls-1" d="M408.21,244.96c0-3.41,0-6.82,0-10.23,0-4.71,0-9.41,0-14.12,0-.51-.08-1-.26-1.48-.6-1.55-2.04-2.55-3.71-2.55-4.69,0-9.38,0-14.06,0h-.4c-.04-.09-.06-.15-.08-.21-.19-.61-.38-1.23-.56-1.84-.17-.6-.44-1.14-.83-1.62-.77-.95-1.74-1.48-3-1.48-6.21.01-12.42,0-18.63,0-.76,0-1.43.23-2.03.68-.81.61-1.34,1.43-1.7,2.37-.23.59-.44,1.18-.66,1.77-.04.11-.09.21-.13.3-.76.06-7.72.03-7.98-.04,0-.27,0-.55,0-.83,0-1.01-.62-1.67-1.62-1.68-1.09-.02-2.19,0-3.28,0-.32,0-.61.09-.88.27-.47.32-.69.78-.7,1.34,0,.31,0,.62,0,.94-.13.03-.23.05-.33.07-1.58.21-2.64,1.09-3.23,2.55-.21.5-.25,1.04-.25,1.58,0,10.02,0,20.03,0,30.05,0,.13,0,.26,0,.39.07,1.18.56,2.14,1.48,2.88.73.59,1.58.86,2.53.86,9.73,0,19.46,0,29.19,0,5.86,0,11.71,0,17.57,0,3.21,0,6.42,0,9.62,0,.98,0,1.83-.31,2.56-.94.95-.82,1.39-1.88,1.39-3.13,0-1.96,0-3.92,0-5.89ZM376.03,251.97c-8.76.05-15.97-7.15-15.97-15.97,0-8.52,6.89-15.94,15.97-15.94,8.91,0,15.98,7.22,15.96,15.98-.02,9-7.39,15.99-15.97,15.93Z"/>
      </g>
      <g>
        <path class="cls-1" d="M321.93,289.35h-1.78v2.64h1.78v-2.64Z"/>
        <path class="cls-1" d="M318.9,289.37h-1.8v2.62h1.8v-2.62Z"/>
        <path class="cls-1" d="M317.78,226.34c3.06-2.71,5.75-5.65,7.57-9.17.9-1.76,1.48-3.55,1.74-5.37h15.45v-5.33h-35.93v5.33h16c-.54,3.26-2.31,6.07-4.69,8.59-1.89,2-4.07,3.79-5.91,5.83-1.76,1.95-2.7,3.98-2.81,5.97-.11,1.99.6,3.94,2.13,5.73,2.73,3.2,6.59,4.91,10.74,6.31,0,0,0,.01,0,.02.39.16.75.29,1.09.44,2.74,1.21,5.35,2.58,7.27,4.79,1.7,1.95,1.84,3.74.19,5.89-.92,1.2-2.1,2.29-3.32,3.27-3.2,2.57-6.05,5.38-8.05,8.83-.67,1.15-1.22,3.54-1.62,5.38-.31,0-.62,0-.93,0-1.09.01-1.92,1.37-1.92,3.13,0,3.25,0,6.49,0,9.74,0,.06.01.1.02.15v.3s.02,0,.03,0c.1.55.38.9.78.93.09,0,.18,0,.29,0v.44c0,2.3,0,4.61,0,6.91,0,.55.08.68.42.68,2.11,0,4.22,0,6.32,0,.37,0,.45-.12.45-.71,0-2.29,0-4.59,0-6.88,0-.13,0-.27,0-.43.07,0,.11-.01.15-.01.67-.02.97-.49.97-1.57,0-3.01,0-6.01,0-9.02.07.04.07.01,0-.07,0-.14,0-.28,0-.43,0-1.79-.82-3.15-1.92-3.17-.2,0-.39,0-.59,0,.75-3.18,2.64-5.87,5.12-8.25,2-1.92,4.27-3.6,6.21-5.56,3.73-3.75,4.19-7.95,1.34-11.69-2.58-3.39-6.41-5.29-10.53-6.91-.02.05-.05.1-.07.16.02-.06.05-.11.07-.17-.4-.14-.77-.25-1.12-.38-2.81-1.07-5.5-2.32-7.55-4.42-1.81-1.86-2.06-3.64-.53-5.85.86-1.24,1.98-2.38,3.14-3.41ZM315.6,286.26s.09,0,.13,0c-.01.05-.06.05-.13,0ZM322.54,287.12v7.13h-6.08v-7.13h6.08Z"/>
      </g>
    </g>
  </g>
</svg>